<?xml version="1.0" encoding="UTF-8"?>
<!DOCTYPE svg PUBLIC "-//W3C//DTD SVG 1.1//EN" "http://www.w3.org/Graphics/SVG/1.1/DTD/svg11.dtd">
<!-- Creator: CorelDRAW 2019 (64-Bit) -->
<svg xmlns="http://www.w3.org/2000/svg" xml:space="preserve" width="38.2063mm" height="5.2336mm" version="1.1" style="shape-rendering:geometricPrecision; text-rendering:geometricPrecision; image-rendering:optimizeQuality; fill-rule:evenodd; clip-rule:evenodd"
viewBox="0 0 3817.54 522.94"
 xmlns:xlink="http://www.w3.org/1999/xlink">
 <defs>
  <style type="text/css">
   <![CDATA[
    .fil0 {fill:#006BC0;fill-rule:nonzero}
   ]]>
  </style>
 </defs>
 <g id="Layer_x0020_1">
  <metadata id="CorelCorpID_0Corel-Layer"/>
  <path class="fil0" d="M2801.15 522.94l134.69 0 0 -522.94 -134.69 0 0 522.94zm264.75 -0.39l134.51 0 0 -356.02 178.01 356.02 126.57 0 178.05 -356.02 0 356.02 134.51 0 0 -522.17 -178.05 0 -197.78 395.58 -197.8 -395.58 -178.02 0 0 522.17zm-3065.9 0l134.49 0 0 -241.3 361.72 0 0 -87.03 -361.72 0 0 -106.79 409.2 0 0 -87.04 -543.69 0 0 522.17zm532.01 0l142.41 0 75.17 -150.33 268.98 0 75.17 150.33 142.41 0 -261.1 -522.17 -181.95 0 -261.1 522.17zm261.1 -237.35l90.97 -181.97 90.99 181.97 -181.95 0zm1170.93 237.35l-213.62 -213.61c17.55,0.12 35.07,-0.13 52.35,-0.93 17.41,-0.66 33.76,-2.64 49.31,-5.92 15.57,-3.32 29.29,-8.72 41.28,-16.24 12.14,-7.51 21.63,-18.08 28.48,-31.64 6.86,-13.45 10.43,-30.86 10.56,-52.09l0 -94.93c-0.13,-21.23 -3.7,-38.64 -10.68,-52.08 -6.85,-13.59 -16.49,-24.15 -28.76,-31.67 -12.4,-7.5 -26.49,-12.91 -42.59,-16.2 -16.1,-3.31 -33.22,-5.29 -51.69,-6.08 -18.33,-0.67 -37.05,-0.93 -56.17,-0.79l-435.14 0 0 522.17 134.48 0 0 -213.61 142.41 0 213.62 213.61 166.16 0zm-522.19 -300.65l0 -134.48 308.57 0c8.05,-0.15 15.69,0.12 22.94,1.05 7.11,0.78 12.93,3.15 17.54,7.11 4.5,3.95 6.86,10.41 6.98,19.51l0 79.12c-0.12,9.1 -2.49,15.56 -6.98,19.52 -4.61,3.95 -10.42,6.31 -17.54,7.1 -7.25,0.94 -14.89,1.2 -22.94,1.06l-308.57 0zm611.76 300.65l340.19 0c28.75,0 56.84,-2.76 84.27,-8.43 27.55,-5.68 53.4,-14.5 77.52,-26.63 24.14,-12.13 45.37,-27.7 63.85,-46.95 18.46,-19.24 32.81,-42.32 43.24,-69.36 10.41,-27.01 15.83,-58.28 15.95,-93.87l0 -35.61c-0.12,-35.6 -5.54,-66.73 -15.95,-93.49 -10.42,-26.77 -24.78,-49.57 -43.24,-68.3 -18.48,-18.85 -39.71,-34.15 -63.85,-45.89 -24.12,-11.59 -49.97,-20.17 -77.52,-25.57 -27.43,-5.42 -55.53,-8.18 -84.27,-8.04l-340.19 0 0 522.17zm134.5 -87.03l0 -352.07 166.14 0c19.11,-0.14 37.84,1.32 56.18,4.22 18.45,3.03 35.6,8.05 51.69,15.05 16.08,6.97 30.32,16.47 42.59,28.6 12.27,12.01 21.89,27.17 28.89,45.23 6.84,18.21 10.41,39.96 10.53,65.14l0 35.61c-0.12,25.17 -3.69,46.94 -10.53,65.01 -6.99,18.19 -16.62,33.36 -28.89,45.35 -12.27,12.13 -26.51,21.63 -42.59,28.63 -16.09,6.97 -33.24,11.98 -51.69,14.9 -18.35,3.02 -37.07,4.48 -56.18,4.34l-166.14 0z"/>
 </g>
</svg>
